/* XPM */
static char * snake_img_xpm[] = {
"29 33 443 2",
"  	c None",
". 	c #2E2D00",
"+ 	c #6F4800",
"@ 	c #B25800",
"# 	c #D95F00",
"$ 	c #DA6C00",
"% 	c #874500",
"& 	c #533100",
"* 	c #6F4400",
"= 	c #CD5E00",
"- 	c #D08121",
"; 	c #D56609",
"> 	c #E05D01",
", 	c #C7752C",
"' 	c #9E6300",
") 	c #AE5900",
"! 	c #E06300",
"~ 	c #C7A664",
"{ 	c #D69C4D",
"] 	c #C35900",
"^ 	c #ECD787",
"/ 	c #D48C37",
"( 	c #874300",
"_ 	c #323900",
": 	c #A35500",
"< 	c #DD6101",
"[ 	c #CE9142",
"} 	c #DD8D31",
"| 	c #E46000",
"1 	c #CFA467",
"2 	c #DC720E",
"3 	c #B05D00",
"4 	c #A56200",
"5 	c #884300",
"6 	c #D66800",
"7 	c #DD5E03",
"8 	c #DC5D03",
"9 	c #D65C00",
"0 	c #E26100",
"a 	c #D55A00",
"b 	c #AB5D00",
"c 	c #2A2900",
"d 	c #2F3300",
"e 	c #343700",
"f 	c #502D00",
"g 	c #452C00",
"h 	c #BC5800",
"i 	c #935B00",
"j 	c #874900",
"k 	c #DF6904",
"l 	c #E56001",
"m 	c #D96200",
"n 	c #D66600",
"o 	c #E05F00",
"p 	c #AE6000",
"q 	c #273700",
"r 	c #4F2A00",
"s 	c #652900",
"t 	c #602A00",
"u 	c #533200",
"v 	c #C76700",
"w 	c #765200",
"x 	c #C4B400",
"y 	c #785700",
"z 	c #AA6000",
"A 	c #B25303",
"B 	c #CB5D02",
"C 	c #9C6000",
"D 	c #795A11",
"E 	c #815400",
"F 	c #342500",
"G 	c #6D2800",
"H 	c #582900",
"I 	c #644100",
"J 	c #E66500",
"K 	c #644B00",
"L 	c #A69000",
"M 	c #FFFB10",
"N 	c #473F00",
"O 	c #9B964E",
"P 	c #948D31",
"Q 	c #6A6A21",
"R 	c #98964A",
"S 	c #814A00",
"T 	c #5C2700",
"U 	c #742500",
"V 	c #613C00",
"W 	c #E46800",
"X 	c #6F5600",
"Y 	c #978100",
"Z 	c #FFEC25",
"` 	c #9A886B",
" .	c #FFF050",
"..	c #FFF247",
"+.	c #D3C696",
"@.	c #938B51",
"#.	c #795100",
"$.	c #662700",
"%.	c #6B2800",
"&.	c #BB5F00",
"*.	c #8A5300",
"=.	c #A79700",
"-.	c #CFB70E",
";.	c #A78B10",
">.	c #DAC313",
",.	c #DFD679",
"'.	c #CEB44C",
").	c #A8A061",
"!.	c #614800",
"~.	c #5D2800",
"{.	c #7A2200",
"].	c #452E00",
"^.	c #945600",
"/.	c #BF5C00",
"(.	c #615900",
"_.	c #DEC80E",
":.	c #EED316",
"<.	c #DAC448",
"[.	c #E9E599",
"}.	c #F0E3A6",
"|.	c #928D42",
"1.	c #4A3800",
"2.	c #612500",
"3.	c #7C2000",
"4.	c #692800",
"5.	c #543700",
"6.	c #D36200",
"7.	c #453B00",
"8.	c #B9A406",
"9.	c #C9B40A",
"0.	c #DBC741",
"a.	c #E4DB94",
"b.	c #DCD88A",
"c.	c #525112",
"d.	c #582700",
"e.	c #7C2100",
"f.	c #7B2300",
"g.	c #4E1F00",
"h.	c #AA5C00",
"i.	c #A94C00",
"j.	c #959204",
"k.	c #DCC514",
"l.	c #C7BE69",
"m.	c #C8C069",
"n.	c #DDDA85",
"o.	c #696834",
"p.	c #512800",
"q.	c #762400",
"r.	c #782000",
"s.	c #5E2700",
"t.	c #583900",
"u.	c #EB6A00",
"v.	c #5F4700",
"w.	c #DBC814",
"x.	c #FDF4A2",
"y.	c #FDF8B7",
"z.	c #F2F0A1",
"A.	c #4D4C00",
"B.	c #412D00",
"C.	c #752100",
"D.	c #7D2100",
"E.	c #6A2900",
"F.	c #3A2500",
"G.	c #A65600",
"H.	c #8E4201",
"I.	c #B5A702",
"J.	c #C8C266",
"K.	c #C8C365",
"L.	c #A39F53",
"M.	c #423000",
"N.	c #7D2200",
"O.	c #792100",
"P.	c #6B2600",
"Q.	c #8D5500",
"R.	c #DA6A00",
"S.	c #7C7014",
"T.	c #FCFA57",
"U.	c #FDFCA7",
"V.	c #CFC798",
"W.	c #394200",
"X.	c #5B3200",
"Y.	c #682700",
"Z.	c #452900",
"`.	c #8F5700",
" +	c #6A5103",
".+	c #D8BF0C",
"++	c #E0D66E",
"@+	c #BABA71",
"#+	c #603A00",
"$+	c #505100",
"%+	c #5B4D00",
"&+	c #732400",
"*+	c #782100",
"=+	c #6D2700",
"-+	c #4F2D00",
";+	c #4C2500",
">+	c #5A2600",
",+	c #6E2400",
"'+	c #7A2400",
")+	c #753B00",
"!+	c #935400",
"~+	c #AD9B07",
"{+	c #E5DB74",
"]+	c #CBC785",
"^+	c #A3610D",
"/+	c #BC5E00",
"(+	c #B36200",
"_+	c #763B00",
":+	c #674600",
"<+	c #6A7500",
"[+	c #6C4B00",
"}+	c #662C00",
"|+	c #7B1F00",
"1+	c #722300",
"2+	c #7D2000",
"3+	c #7E2000",
"4+	c #7A2300",
"5+	c #7B2100",
"6+	c #552400",
"7+	c #C36800",
"8+	c #77670A",
"9+	c #FBEA24",
"0+	c #FFFBB3",
"a+	c #847830",
"b+	c #D85D00",
"c+	c #E25E00",
"d+	c #E56400",
"e+	c #AA5A00",
"f+	c #5B3100",
"g+	c #807800",
"h+	c #6C5B00",
"i+	c #4E3100",
"j+	c #6D2E00",
"k+	c #752800",
"l+	c #752000",
"m+	c #742200",
"n+	c #712300",
"o+	c #5F2700",
"p+	c #562A00",
"q+	c #542C00",
"r+	c #7F4E01",
"s+	c #694100",
"t+	c #C3B423",
"u+	c #C9BD6C",
"v+	c #A5AF60",
"w+	c #A05A03",
"x+	c #D45A00",
"y+	c #CD6100",
"z+	c #DF6000",
"A+	c #BB5401",
"B+	c #616200",
"C+	c #515B00",
"D+	c #7E8700",
"E+	c #644700",
"F+	c #512C00",
"G+	c #562900",
"H+	c #5B2800",
"I+	c #6E2500",
"J+	c #811D00",
"K+	c #732700",
"L+	c #7C4701",
"M+	c #894901",
"N+	c #D8CB1F",
"O+	c #FFFFAD",
"P+	c #FFFFD2",
"Q+	c #5D5F2E",
"R+	c #5F4300",
"S+	c #AF5800",
"T+	c #DA5E00",
"U+	c #D65D00",
"V+	c #DF6400",
"W+	c #954B00",
"X+	c #322800",
"Y+	c #552A00",
"Z+	c #7B2200",
"`+	c #792300",
" @	c #752500",
".@	c #722400",
"+@	c #871B00",
"@@	c #4B2400",
"#@	c #F27300",
"$@	c #454803",
"%@	c #FAE679",
"&@	c #FAFCB7",
"*@	c #81752E",
"=@	c #E66800",
"-@	c #E16300",
";@	c #B35500",
">@	c #E56700",
",@	c #DA5C00",
"'@	c #B35A00",
")@	c #302F00",
"!@	c #4F2E00",
"~@	c #702500",
"{@	c #7F2000",
"]@	c #782200",
"^@	c #722800",
"/@	c #732900",
"(@	c #6F2500",
"_@	c #692200",
":@	c #A85900",
"<@	c #7E4800",
"[@	c #9D971D",
"}@	c #CBB75D",
"|@	c #AFA85E",
"1@	c #734900",
"2@	c #DF6100",
"3@	c #DD6700",
"4@	c #E05D00",
"5@	c #E36200",
"6@	c #835701",
"7@	c #3D3E00",
"8@	c #442A00",
"9@	c #792200",
"0@	c #732600",
"a@	c #6B2E00",
"b@	c #584800",
"c@	c #6A5200",
"d@	c #685400",
"e@	c #633C00",
"f@	c #732C00",
"g@	c #864A00",
"h@	c #B85400",
"i@	c #B2AC29",
"j@	c #E9DA79",
"k@	c #C4CC95",
"l@	c #774700",
"m@	c #DE5B00",
"n@	c #D45E00",
"o@	c #C26501",
"p@	c #8A6A08",
"q@	c #484800",
"r@	c #5D2700",
"s@	c #7F2100",
"t@	c #772400",
"u@	c #841F00",
"v@	c #6E3300",
"w@	c #6E7500",
"x@	c #756F00",
"y@	c #948D00",
"z@	c #887E00",
"A@	c #9F9200",
"B@	c #595900",
"C@	c #D46500",
"D@	c #AD5200",
"E@	c #C0B72E",
"F@	c #F9EE99",
"G@	c #BEBE7A",
"H@	c #5F4200",
"I@	c #A85D00",
"J@	c #AB6404",
"K@	c #9D6003",
"L@	c #92790A",
"M@	c #C6BB13",
"N@	c #413F00",
"O@	c #7F1F00",
"P@	c #A33600",
"Q@	c #AB5600",
"R@	c #5B4800",
"S@	c #3C3A00",
"T@	c #7B6700",
"U@	c #795B00",
"V@	c #E96800",
"W@	c #7C4F00",
"X@	c #9B900C",
"Y@	c #CCBE5B",
"Z@	c #BAB975",
"`@	c #464400",
" #	c #A99B01",
".#	c #CAB11A",
"+#	c #B0A216",
"@#	c #BFA60B",
"##	c #7B6A00",
"$#	c #453200",
"%#	c #762500",
"&#	c #A33C00",
"*#	c #DE6300",
"=#	c #CB6100",
"-#	c #684600",
";#	c #553E00",
">#	c #503D00",
",#	c #8A4B00",
"'#	c #D25E00",
")#	c #E16500",
"!#	c #464300",
"~#	c #EDDB19",
"{#	c #FFF076",
"]#	c #C0C48E",
"^#	c #4F4500",
"/#	c #9E9A00",
"(#	c #BEA107",
"_#	c #928104",
":#	c #5A5400",
"<#	c #383A00",
"[#	c #4D3C00",
"}#	c #693700",
"|#	c #833402",
"1#	c #D35C00",
"2#	c #D05A00",
"3#	c #E06500",
"4#	c #E76500",
"5#	c #E26700",
"6#	c #E16400",
"7#	c #C95C00",
"8#	c #897B08",
"9#	c #F2DD2C",
"0#	c #ECE066",
"a#	c #56570D",
"b#	c #434201",
"c#	c #636D00",
"d#	c #555200",
"e#	c #7B7B00",
"f#	c #5F6200",
"g#	c #755000",
"h#	c #945C00",
"i#	c #BD6900",
"j#	c #C35F00",
"k#	c #C86200",
"l#	c #CD6A00",
"m#	c #7D5400",
"n#	c #918500",
"o#	c #F8DB18",
"p#	c #AC970D",
"q#	c #A29607",
"r#	c #6E6C00",
"s#	c #6C6400",
"t#	c #8B8400",
"u#	c #6B6600",
"v#	c #645D00",
"w#	c #626A00",
"x#	c #666800",
"y#	c #AD8D00",
"z#	c #A78900",
"A#	c #9B9200",
"B#	c #958C10",
"C#	c #1F2600",
"D#	c #7D7A00",
"E#	c #827600",
"F#	c #8A7700",
"G#	c #8B7B00",
"H#	c #837F00",
"I#	c #756D00",
"J#	c #192400",
"                              .                           ",
"                        + @ # $ % &                       ",
"                      * = - ; > , '                       ",
"                      ) ! ~ { ] ^ / (                     ",
"                    _ : < [ } | 1 2 3                     ",
"                    4 5 6 7 8 9 0 a b c                   ",
"    d e f g         h i j k l m n o p q                   ",
"        r s t     u v w x y z A B C D E                   ",
"          F G H   I J K L M N O P Q R S                   ",
"            T U   V W X Y Z `  ...+.@.#.                  ",
"            $.%.    &.*.=.-.;.>.,.'.).!.                  ",
"          ~.{.].    ^./.(._.:.<.[.}.|.1.                  ",
"        2.3.4.      5.6.7.8.9.0.a.b.c.                    ",
"      d.e.f.g.        h.i.j.k.l.m.n.o.                    ",
"    p.q.r.s.          t.u.v.w.x.y.z.A.                    ",
"  B.C.D.E.F.            G.H.I.J.K.L.                      ",
"  M.N.O.P.              Q.R.S.T.U.V.                      ",
"  W.X.O.Y.              Z.`. +.+++@+#+                    ",
"  $+%+&+*+=+-+    ;+>+,+'+)+!+~+{+]+^+/+(+_+:+            ",
"    <+[+}+|+1+2+3+{.4+O.5+6+7+8+9+0+a+b+c+d+= e+f+        ",
"      g+h+i+j+k+l+m+n+o+p+q+r+s+t+u+v+w+x+y+| z+A+        ",
"        B+C+D+E+F+G+H+I+J+K+L+M+N+O+P+Q+R+S+T+U+V+W+      ",
"            X+Y+Z+`+ @Z+.@+@@@#@$@%@&@*@=@-@;@>@,@'@)@    ",
"          !@~@{@Z+]@q.^@/@(@_@:@<@[@}@|@1@2@3@4@5@6@7@    ",
"        8@9@9@O.0@a@b@c@d@e@f@g@h@i@j@k@l@m@U+n@o@p@q@    ",
"        r@s@t@u@v@w@x@y@z@A@B@C@D@E@F@G@H@I@J@K@L@M@N@    ",
"        t O@4+P@Q@R@    S@T@U@V@W@X@Y@Z@`@ #.#+#@###      ",
"        $#%#r.&#*#=#-#;#>#,#'#)#!#~#{#]#^#/#(#_#:#        ",
"        <#[#}#|#1#2#3#4#5#6#7#h.8#9#0#a#b#c#              ",
"          d#e#f#g#h#i#j#k#l#m#n#o#p#q#                    ",
"              r#s#t#u#v#w#x#y#z#A#B#                      ",
"                  C#D#E#F#G#H#I#J#                        ",
"                                                          "};
